<svg version="1.0" xmlns="http://www.w3.org/2000/svg"
 width="64.000000pt" height="64.000000pt" viewBox="0 0 64.000000 64.000000"
 preserveAspectRatio="xMidYMid meet">
<g transform="translate(0.000000,64.000000) scale(0.100000,-0.100000)"
fill="#ffffff" stroke="none">
<path d="M92 600 c-94 -58 -99 -216 -7 -276 25 -16 25 -18 25 -148 0 -89 4
-136 12 -144 17 -17 379 -17 396 0 7 7 12 45 12 98 0 82 1 88 28 111 l27 24
-22 -26 c-42 -47 -17 -71 27 -24 18 19 22 31 17 59 -3 20 -1 38 4 41 5 4 9 19
9 36 0 25 -4 29 -29 29 -17 0 -33 -4 -36 -10 -15 -25 -25 -5 -25 53 0 60 -2
65 -38 100 -36 36 -40 37 -109 37 -52 0 -74 4 -84 16 -39 47 -148 60 -207 24z
m179 -49 c35 -35 39 -44 39 -91 0 -47 -4 -56 -39 -91 -35 -35 -44 -39 -91 -39
-47 0 -56 4 -91 39 -35 35 -39 44 -39 91 0 47 4 56 39 91 35 35 44 39 91 39
47 0 56 -4 91 -39z m157 -53 c3 -35 5 -37 40 -40 l37 -3 3 -54 3 -54 -100
-101 c-87 -88 -101 -107 -107 -143 -6 -39 -5 -43 14 -43 40 0 78 22 135 78
l57 56 0 -61 c0 -92 -1 -93 -190 -93 -131 0 -161 3 -174 16 -13 12 -16 39 -16
130 l0 114 53 0 c61 0 107 24 138 72 16 27 19 46 17 101 l-4 68 46 -3 c44 -3
45 -4 48 -40z"/>
<path d="M94 546 c-50 -50 -50 -122 0 -172 30 -30 40 -34 86 -34 46 0 56 4 86
34 30 30 34 40 34 86 0 46 -4 56 -34 86 -30 30 -40 34 -86 34 -46 0 -56 -4
-86 -34z"/>
</g>
</svg>
