
<svg version="1.0" xmlns="http://www.w3.org/2000/svg"
 width="512.000000pt" height="512.000000pt" viewBox="0 0 512.000000 512.000000"
 preserveAspectRatio="xMidYMid meet">
<g transform="translate(0.000000,512.000000) scale(0.100000,-0.100000)"
fill="#ffffff" stroke="none">
<path d="M1697 5104 c-403 -89 -700 -374 -809 -774 -20 -74 -23 -108 -23 -260
1 -149 4 -187 23 -257 109 -401 414 -691 812 -773 145 -30 350 -24 490 14 356
98 626 367 736 732 36 120 45 357 19 485 -44 218 -135 391 -289 545 -96 95
-176 151 -300 210 -147 69 -224 85 -421 90 -127 3 -187 0 -238 -12z"/>
<path d="M3551 2743 c-62 -31 -79 -72 -98 -237 l-17 -148 -81 -40 c-44 -23
-106 -58 -137 -79 -31 -22 -59 -39 -63 -39 -3 0 -64 25 -136 55 -144 61 -187
67 -248 35 -42 -21 -55 -39 -182 -260 -78 -135 -84 -148 -84 -202 0 -75 14
-92 155 -200 l113 -86 0 -162 0 -162 -114 -86 c-87 -66 -120 -98 -137 -132
-38 -73 -29 -103 89 -310 118 -206 141 -231 223 -238 47 -4 68 2 189 53 l135
57 59 -40 c32 -21 94 -57 138 -80 l81 -40 17 -146 c9 -80 23 -159 32 -176 8
-16 32 -41 52 -55 38 -25 38 -25 271 -25 248 0 264 3 308 52 36 39 42 59 59
208 l17 145 65 29 c35 16 98 51 139 79 l75 49 134 -56 c176 -74 228 -74 296 1
14 15 70 104 123 197 89 156 96 174 96 223 0 30 -7 67 -15 83 -8 16 -68 70
-133 119 l-118 88 0 163 0 163 118 88 c65 49 125 103 133 119 8 16 15 53 15
83 0 49 -7 67 -96 223 -105 183 -132 219 -181 240 -56 24 -99 17 -239 -42
l-133 -56 -86 55 c-47 30 -109 65 -139 77 l-53 23 -18 146 c-17 150 -23 170
-59 209 -44 49 -60 52 -303 52 -191 0 -233 -3 -262 -17z m419 -1014 c158 -75
252 -250 220 -411 -24 -128 -104 -232 -220 -287 -48 -23 -68 -26 -160 -26
-100 0 -108 1 -167 34 -77 41 -146 113 -181 189 -23 49 -27 70 -27 152 0 82 4
103 27 152 45 97 133 176 236 215 24 8 70 12 127 10 73 -2 101 -7 145 -28z"/>
<path d="M1745 2733 c-668 -58 -1266 -468 -1555 -1066 -68 -142 -102 -235
-135 -367 -50 -198 -56 -283 -53 -721 l3 -406 33 -49 c37 -54 88 -94 141 -112
25 -9 427 -12 1537 -12 827 0 1504 1 1504 3 0 1 -7 34 -15 72 -8 39 -15 87
-15 107 0 29 -6 41 -29 58 l-30 20 -88 -36 c-161 -67 -305 -57 -437 31 -31 20
-72 56 -90 79 -43 53 -234 385 -258 448 -70 186 3 392 186 523 49 36 56 44 56
75 0 31 -7 40 -56 75 -183 131 -256 337 -185 524 10 27 67 134 127 238 120
209 171 269 269 317 l59 29 -35 17 c-55 29 -207 80 -314 106 -179 44 -435 63
-620 47z"/>
</g>
</svg>
