<svg width="22" height="22" viewBox="0 0 22 22" fill="none" xmlns="http://www.w3.org/2000/svg">
<path d="M11 12.5385C13.1242 12.5385 14.8462 10.8165 14.8462 8.69235C14.8462 6.56818 13.1242 4.84619 11 4.84619C8.87585 4.84619 7.15387 6.56818 7.15387 8.69235C7.15387 10.8165 8.87585 12.5385 11 12.5385Z" stroke="white" stroke-linecap="round" stroke-linejoin="round"/>
<path d="M4.43073 18.5385C5.11725 17.4116 6.08212 16.4802 7.23259 15.8341C8.38305 15.1877 9.6804 14.8483 11 14.8483C12.3195 14.8483 13.6169 15.1877 14.7673 15.8341C15.9178 16.4802 16.8826 17.4116 17.5692 18.5385" stroke="white" stroke-linecap="round" stroke-linejoin="round"/>
<path d="M11 21C16.5229 21 21 16.5229 21 11C21 5.47715 16.5229 1 11 1C5.47715 1 1 5.47715 1 11C1 16.5229 5.47715 21 11 21Z" stroke="white" stroke-linecap="round" stroke-linejoin="round"/>
</svg>
