<svg width="22" height="22" viewBox="0 0 22 22" fill="none" xmlns="http://www.w3.org/2000/svg">
<path d="M11.7692 1H4.07692C3.66889 1 3.27758 1.16209 2.98906 1.4506C2.70055 1.73912 2.53846 2.13043 2.53846 2.53846V16.3846L1 21L7.15385 19.4615H19.4615C19.8695 19.4615 20.2609 19.2994 20.5494 19.0109C20.8378 18.7225 21 18.3311 21 17.9231V10.2308" stroke="white" stroke-linecap="round" stroke-linejoin="round"/>
<path d="M13.0972 12.749L8.48181 13.5798L9.25104 8.90288L16.528 1.65673C16.6709 1.51254 16.8411 1.39808 17.0286 1.31998C17.216 1.24187 17.4171 1.20166 17.6203 1.20166C17.8234 1.20166 18.0245 1.24187 18.2119 1.31998C18.3994 1.39808 18.5696 1.51254 18.7126 1.65673L20.3434 3.2875C20.4876 3.43052 20.602 3.60068 20.6802 3.78816C20.7582 3.97562 20.7985 4.17672 20.7985 4.37981C20.7985 4.5829 20.7582 4.78399 20.6802 4.97147C20.602 5.15895 20.4876 5.3291 20.3434 5.47212L13.0972 12.749Z" stroke="white" stroke-linecap="round" stroke-linejoin="round"/>
</svg>
