<svg version="1.0" xmlns="http://www.w3.org/2000/svg"
 width="256.000000pt" height="256.000000pt" viewBox="0 0 256.000000 256.000000"
 preserveAspectRatio="xMidYMid meet">
<g transform="translate(0.000000,256.000000) scale(0.100000,-0.100000)"
fill="#ffffff" stroke="none">
<path d="M1165 2466 c-95 -30 -189 -118 -223 -209 -12 -31 -24 -94 -27 -139
-4 -46 -11 -101 -17 -124 l-11 -41 -65 34 c-82 42 -116 41 -120 -4 -3 -30 0
-33 61 -62 105 -50 159 -128 171 -246 3 -33 3 -53 0 -45 -4 8 -29 39 -57 68
-59 60 -76 63 -149 26 -83 -42 -127 -54 -226 -64 -51 -5 -100 -14 -108 -21
-12 -10 -14 -5 -14 31 0 102 58 195 155 245 52 28 60 36 63 63 5 46 -30 52
-100 17 -134 -67 -207 -194 -208 -360 0 -33 -7 -79 -15 -103 -26 -73 6 -144
75 -170 17 -7 30 -24 42 -59 10 -27 33 -67 53 -90 20 -23 35 -52 35 -66 0 -27
-23 -37 -285 -135 -85 -32 -164 -104 -183 -168 -8 -29 -12 -144 -12 -381 l0
-340 23 -21 23 -22 1235 0 1236 0 21 23 c21 22 22 33 22 180 0 139 -2 157 -17
165 -20 10 -44 5 -55 -12 -4 -6 -8 -71 -8 -143 l0 -133 -70 0 -70 0 0 285 c0
274 -1 285 -20 295 -14 8 -26 8 -40 0 -19 -10 -20 -21 -20 -295 l0 -285 -131
0 -132 0 42 45 c23 25 41 55 41 67 0 13 -18 127 -40 253 -22 127 -40 238 -40
247 0 13 10 18 43 20 l42 3 50 96 50 97 96 -37 c175 -68 198 -100 199 -271 0
-58 4 -111 9 -118 5 -8 21 -12 37 -10 l29 3 3 120 c4 144 -7 190 -59 249 -44
50 -66 62 -271 141 -145 56 -148 57 -148 87 0 20 12 44 36 71 19 23 40 61 46
83 10 34 18 45 51 59 21 9 47 31 58 49 22 37 24 101 4 136 -9 15 -14 54 -15
101 0 94 -18 157 -65 225 -98 142 -294 194 -451 119 -32 -16 -62 -31 -66 -33
-15 -8 -38 74 -38 137 -1 222 -151 381 -360 380 -41 0 -93 -6 -115 -13z m230
-97 c89 -46 145 -128 159 -234 l7 -50 -54 58 c-45 48 -60 57 -88 57 -19 0 -45
-7 -57 -16 -51 -35 -148 -65 -232 -71 -47 -3 -95 -12 -107 -19 -23 -14 -23
-14 -23 29 0 55 15 100 52 154 75 110 227 151 343 92z m49 -288 l28 -29 -4
-134 c-3 -122 -5 -138 -27 -169 -87 -128 -279 -113 -342 26 -14 30 -19 65 -19
140 l0 101 99 15 c64 11 121 27 162 47 35 17 67 31 70 31 3 1 18 -12 33 -28z
m567 -163 c89 -37 150 -126 165 -238 l7 -55 -42 50 c-74 87 -90 91 -173 49
-85 -43 -128 -55 -226 -64 -51 -4 -99 -14 -107 -20 -23 -19 -20 57 5 122 59
154 217 221 371 156z m-1187 -287 l28 -29 -4 -134 c-3 -123 -5 -138 -27 -170
-43 -62 -85 -83 -167 -83 -65 0 -76 3 -111 31 -64 51 -83 101 -83 221 l0 103
38 0 c54 0 189 36 242 64 25 13 48 25 51 25 3 1 18 -12 33 -28z m1274 -158
c-5 -114 -7 -126 -34 -170 -84 -137 -286 -120 -349 29 -10 25 -15 70 -15 138
l0 100 34 0 c58 0 172 28 238 58 l63 29 34 -31 33 -31 -4 -122z m-1042 -153
c37 -71 57 -86 100 -76 21 6 24 3 23 -21 0 -16 -8 -71 -17 -124 l-17 -96 -150
58 c-144 55 -150 58 -153 87 -2 22 6 43 32 77 20 25 41 63 47 83 10 35 28 50
96 81 1 1 18 -30 39 -69z m585 -30 c15 -33 39 -71 54 -84 20 -19 26 -32 23
-56 -3 -31 -6 -33 -153 -89 l-150 -58 -17 96 c-24 135 -23 154 3 146 42 -14
65 3 103 74 l36 69 37 -19 c29 -15 43 -32 64 -79z m-327 -211 l20 -116 -25
-31 c-13 -17 -26 -31 -29 -31 -3 0 -16 14 -29 31 l-24 30 18 119 c15 97 21
119 34 117 12 -2 21 -32 35 -119z m-796 -287 c28 -2 42 -8 42 -17 0 -8 -18
-119 -40 -247 -22 -128 -40 -243 -40 -256 0 -12 18 -42 41 -67 l42 -45 -132 0
-131 0 0 285 c0 274 -1 285 -20 295 -14 8 -26 8 -40 0 -19 -10 -20 -21 -20
-295 l0 -285 -70 0 -70 0 0 313 c1 407 -3 399 199 478 l96 37 50 -97 50 -96
43 -3z m580 136 c56 -22 94 -54 120 -103 15 -26 17 -75 20 -347 l3 -318 -70 0
-71 0 0 279 c0 241 -2 282 -16 295 -20 21 -30 20 -54 -4 -19 -19 -20 -33 -20
-295 l0 -275 -127 0 -127 0 26 28 c64 68 63 54 18 320 -47 282 -48 292 -20
285 48 -13 67 4 116 101 l48 94 51 -20 c27 -11 74 -29 103 -40z m637 -134 c14
-3 34 -4 45 -1 28 7 27 -3 -20 -285 -45 -266 -46 -252 18 -320 l26 -28 -127 0
-127 0 0 275 c0 262 -1 276 -20 295 -24 24 -34 25 -54 4 -14 -13 -16 -54 -16
-295 l0 -279 -70 0 -70 0 0 301 c0 197 4 315 11 340 18 60 72 103 184 147
l100 40 48 -94 c36 -72 53 -95 72 -100z m-1061 -61 c3 -10 21 -114 41 -231
l36 -213 -42 -50 c-22 -27 -44 -49 -49 -49 -9 0 -90 86 -90 97 -1 5 16 110 37
236 25 147 42 227 50 227 6 0 14 -8 17 -17z m1280 -213 c32 -193 36 -233 25
-248 -24 -32 -73 -82 -80 -82 -4 0 -26 22 -48 49 l-41 49 35 219 c41 249 40
243 57 243 9 0 25 -68 52 -230z"/>
</g>
</svg>
