<svg version="1.0" xmlns="http://www.w3.org/2000/svg"
 width="512.000000pt" height="512.000000pt" viewBox="0 0 512.000000 512.000000"
 preserveAspectRatio="xMidYMid meet">
<g transform="translate(0.000000,512.000000) scale(0.100000,-0.100000)"
fill="#000000" stroke="none">
<path d="M1985 4571 c-550 -302 -1012 -561 -1027 -574 l-28 -25 0 -684 0 -684
-57 -18 c-82 -26 -229 -104 -323 -171 -221 -160 -406 -411 -489 -666 -76 -235
-82 -552 -14 -789 30 -107 85 -230 110 -250 36 -28 104 -27 138 2 41 36 42 82
5 169 -60 141 -82 240 -87 402 -6 169 5 257 48 389 58 180 149 326 286 460
495 483 1277 418 1692 -141 95 -129 160 -277 196 -446 21 -96 24 -310 6 -405
-46 -238 -156 -444 -328 -611 -104 -101 -182 -156 -307 -215 -286 -135 -612
-142 -917 -17 -100 41 -144 40 -179 -4 -28 -36 -27 -104 2 -137 29 -32 168
-89 300 -122 138 -35 395 -44 538 -20 401 68 741 306 942 658 26 46 51 88 55
95 6 8 72 -24 223 -108 196 -109 219 -119 260 -117 38 3 196 86 1045 552 550
301 1010 559 1023 573 l22 24 0 393 0 393 -26 27 c-38 37 -110 37 -148 0 l-26
-26 -2 -340 -3 -339 -810 -445 c-445 -245 -847 -465 -892 -490 l-83 -45 0 974
0 973 281 155 c155 85 285 156 290 157 5 2 9 -108 9 -251 0 -269 5 -305 45
-331 52 -34 87 -23 320 104 121 67 232 134 248 151 l27 29 0 328 0 328 283
155 282 155 3 -282 2 -282 27 -26 c37 -37 109 -37 147 0 l26 27 0 393 0 393
-22 24 c-13 14 -473 272 -1023 574 -850 466 -1007 548 -1045 551 -43 2 -99
-27 -1045 -547z m1945 -169 c476 -261 866 -475 867 -476 4 -4 -536 -296 -548
-296 -18 0 -1770 963 -1763 969 3 3 125 72 272 152 226 125 270 146 287 137
11 -6 409 -225 885 -486z m90 -901 c0 -3 -46 -30 -103 -60 l-102 -53 -882 483
c-485 266 -882 486 -882 489 0 3 46 30 102 60 l102 55 883 -484 c485 -267 882
-487 882 -490z m-1315 254 c479 -263 875 -480 882 -484 11 -6 -540 -315 -562
-314 -7 0 -873 472 -1761 962 -7 3 117 77 274 163 157 86 289 155 292 153 3
-1 397 -218 875 -480z m-666 -504 l881 -484 0 -974 0 -974 -72 41 c-40 22
-108 59 -151 82 -49 27 -76 47 -73 55 3 7 13 52 22 100 25 126 23 356 -4 489
-108 540 -516 948 -1056 1056 -104 21 -376 30 -423 14 l-23 -7 0 546 c0 320 4
545 9 543 5 -1 405 -221 890 -487z m2080 -381 c-13 -8 -62 -37 -111 -63 l-88
-48 2 221 3 222 105 58 105 58 3 -216 c3 -214 2 -217 -19 -232z"/>
<path d="M4993 2933 c-71 -14 -99 -120 -46 -175 22 -23 35 -28 74 -28 65 0 99
34 99 100 0 38 -5 53 -26 74 -15 14 -32 26 -40 26 -7 0 -18 2 -26 4 -7 2 -23
1 -35 -1z"/>
<path d="M955 1906 c-16 -8 -92 -77 -169 -155 l-139 -140 6 -47 c5 -45 11 -54
149 -191 140 -139 146 -143 187 -143 53 0 77 12 97 52 25 47 13 94 -38 145
l-43 44 320 -3 c353 -3 355 -4 430 -69 132 -117 105 -328 -54 -411 -53 -28
-54 -28 -255 -28 -110 0 -218 -5 -239 -11 -41 -11 -77 -56 -77 -97 0 -31 26
-79 49 -92 12 -6 113 -10 254 -10 203 0 244 3 296 19 234 73 369 322 306 566
-45 174 -204 311 -388 335 -40 5 -197 10 -351 10 l-278 0 36 40 c19 22 38 51
42 65 20 81 -65 154 -141 121z"/>
<path d="M438 562 c-74 -9 -104 -109 -52 -171 51 -61 162 -32 177 45 6 33 -9
88 -27 103 -19 16 -66 27 -98 23z"/>
</g>
</svg>
